<?xml version="1.0" standalone="no"?><!DOCTYPE svg PUBLIC "-//W3C//DTD SVG 1.1//EN" "http://www.w3.org/Graphics/SVG/1.1/DTD/svg11.dtd"><svg t="1732503962657" class="icon" viewBox="0 0 1024 1024" version="1.1" xmlns="http://www.w3.org/2000/svg" p-id="12577" xmlns:xlink="http://www.w3.org/1999/xlink" width="200" height="200"><path d="M517.377707 1015.125333H78.195484a45.511111 45.511111 0 0 1-45.511111-45.511111v-30.947555a45.511111 45.511111 0 0 1 45.511111-45.511111h439.182223a45.511111 45.511111 0 0 1 45.511111 45.511111v30.947555a45.511111 45.511111 0 0 1-45.511111 45.511111zM78.195484 938.666667v30.947555h439.182223v-30.947555z" fill="#159a8d" p-id="12578"></path><path d="M438.643484 936.391111H157.157262V746.382222h281.486222z m-235.975111-45.511111h190.464V791.893333H202.668373z" fill="#159a8d" p-id="12579"></path><path d="M143.276373 787.569778A39.139556 39.139556 0 0 1 105.04704 750.933333V471.950222A39.822222 39.822222 0 0 1 146.462151 433.720889h304.469333a39.139556 39.139556 0 0 1 39.822223 37.091555v278.528a39.139556 39.139556 0 0 1-40.732445 38.229334H143.276373z m0-45.511111z m6.371556-262.826667v262.826667h295.822222V479.232z m301.056 262.826667zM145.324373 479.232z m306.062223 0z" fill="#159a8d" p-id="12580"></path><path d="M445.060551 507.335111l52.565333-96.256 39.958756 21.799822-52.565333 96.256z" fill="#159a8d" p-id="12581"></path><path d="M879.418596 326.542222a73.728 73.728 0 0 1-24.803556-4.323555l-159.288889-57.116445a39.822222 39.822222 0 0 1-22.755555-53.020444l56.661333-159.288889a39.822222 39.822222 0 0 1 53.020444-22.755556l159.288889 56.661334a73.728 73.728 0 0 1 45.511111 94.435555l-13.198222 37.319111-134.030222-47.786666-10.695111 21.845333 132.892444 47.786667-13.425778 37.319111a73.500444 73.500444 0 0 1-69.632 48.924444zM715.35104 224.142222l154.282667 55.296a28.216889 28.216889 0 0 0 33.678222-11.832889l-131.982222-47.786666L809.103929 113.777778 942.906596 160.426667a28.216889 28.216889 0 0 0-18.432-30.492445l-155.192889-55.523555z m-1.592889 4.323556z m-3.868444-6.371556z m54.613333-149.276444z m6.826667-4.551111z" fill="#159a8d" p-id="12582"></path><path d="M462.764373 136.305778h253.496889v45.511111H462.764373z" fill="#159a8d" p-id="12583"></path><path d="M410.654151 46.876444h331.776v45.511112H410.654151z" fill="#159a8d" p-id="12584"></path><path d="M289.36704 448.876089l109.090133-188.461511 39.389867 22.778311-109.067378 188.484267z" fill="#159a8d" p-id="12585"></path><path d="M544.229262 466.944a45.511111 45.511111 0 0 1-9.557333 0 45.511111 45.511111 0 0 1-28.672-19.797333L290.732373 113.777778a45.511111 45.511111 0 0 1 13.425778-63.032889L351.262151 19.797333a45.511111 45.511111 0 0 1 63.032889 13.425778l215.267556 332.686222a45.511111 45.511111 0 0 1-13.425778 63.032889l-47.331556 30.72a45.511111 45.511111 0 0 1-24.576 7.281778z m-167.936-409.6L328.506596 88.746667l215.267555 332.686222 47.331556-30.72z" fill="#159a8d" p-id="12586"></path><path d="M546.959929 416.654222a45.511111 45.511111 0 1 1 43.918222-33.678222 45.511111 45.511111 0 0 1-43.918222 33.678222z" fill="#159a8d" p-id="12587"></path><path d="M372.652373 148.593778a45.511111 45.511111 0 0 1-11.832889-1.592889 45.511111 45.511111 0 1 1 11.832889 1.592889z" fill="#159a8d" p-id="12588"></path></svg>