<?xml version="1.0" standalone="no"?><!DOCTYPE svg PUBLIC "-//W3C//DTD SVG 1.1//EN" "http://www.w3.org/Graphics/SVG/1.1/DTD/svg11.dtd"><svg t="1732503842595" class="icon" viewBox="0 0 1365 1024" version="1.1" xmlns="http://www.w3.org/2000/svg" p-id="5358" xmlns:xlink="http://www.w3.org/1999/xlink" width="266.6015625" height="200"><path d="M1251.555556 0a56.888889 56.888889 0 0 0-56.888889 56.888889 56.888889 56.888889 0 0 1-113.777778 0 56.888889 56.888889 0 0 0-113.777778 0 56.888889 56.888889 0 0 1-113.777778 0 56.888889 56.888889 0 0 0-113.777777 0 56.888889 56.888889 0 0 1-113.777778 0 56.888889 56.888889 0 0 0-113.777778 0 56.888889 56.888889 0 0 1-113.777778 0 56.888889 56.888889 0 0 0-113.777778 0 56.888889 56.888889 0 0 1-113.777777 0 56.888889 56.888889 0 0 0-56.888889-56.888889 113.777778 113.777778 0 0 0-113.777778 113.777778v796.444444a113.777778 113.777778 0 0 0 113.777778 113.777778 56.888889 56.888889 0 0 0 56.888889-56.888889 56.888889 56.888889 0 0 1 113.777777 0 56.888889 56.888889 0 0 0 113.777778 0 56.888889 56.888889 0 0 1 113.777778 0 56.888889 56.888889 0 0 0 113.777778 0 56.888889 56.888889 0 0 1 113.777778 0 56.888889 56.888889 0 0 0 113.777777 0 56.888889 56.888889 0 0 1 113.777778 0 56.888889 56.888889 0 0 0 113.777778 0 56.888889 56.888889 0 0 1 113.777778 0 56.888889 56.888889 0 0 0 56.888889 56.888889 113.777778 113.777778 0 0 0 113.777777-113.777778V113.777778a113.777778 113.777778 0 0 0-113.777777-113.777778z m-361.813334 560.355556L599.04 739.555556A56.888889 56.888889 0 0 1 512 694.044444V329.955556a56.888889 56.888889 0 0 1 87.04-45.511112l290.702222 182.044445a56.888889 56.888889 0 0 1 0 93.866667z" fill="#159a8d" p-id="5359"></path></svg>